<svg width="40" height="40" viewBox="0 0 40 40" fill="none" xmlns="http://www.w3.org/2000/svg">
<path d="M32.5002 20.9534L20.0002 33.3334L7.50018 20.9534C6.67569 20.1511 6.02625 19.1867 5.59276 18.1211C5.15926 17.0555 4.95111 15.9116 4.98141 14.7616C5.0117 13.6116 5.27978 12.4803 5.76877 11.4389C6.25776 10.3976 6.95707 9.46881 7.82265 8.71102C8.68824 7.95323 9.70135 7.38287 10.7982 7.03585C11.895 6.68884 13.0519 6.57269 14.1958 6.69472C15.3397 6.81675 16.446 7.17431 17.445 7.74489C18.4439 8.31548 19.3139 9.08672 20.0002 10.01C20.6894 9.09342 21.5604 8.32892 22.5587 7.76439C23.5569 7.19986 24.661 6.84747 25.8017 6.72925C26.9425 6.61103 28.0953 6.72955 29.1881 7.07737C30.281 7.42519 31.2902 7.99484 32.1528 8.75066C33.0153 9.50647 33.7126 10.4322 34.2009 11.4699C34.6892 12.5076 34.9581 13.6349 34.9907 14.7812C35.0233 15.9276 34.8189 17.0684 34.3904 18.1321C33.9619 19.1959 33.3184 20.1598 32.5002 20.9634" fill="#46312C"/>
<path d="M32.5002 20.9534L20.0002 33.3334L7.50018 20.9534C6.67569 20.1511 6.02625 19.1867 5.59276 18.1211C5.15926 17.0555 4.95111 15.9116 4.98141 14.7616C5.0117 13.6116 5.27978 12.4803 5.76877 11.4389C6.25776 10.3976 6.95707 9.46881 7.82265 8.71102C8.68824 7.95323 9.70135 7.38287 10.7982 7.03585C11.895 6.68884 13.0519 6.57269 14.1958 6.69472C15.3397 6.81675 16.446 7.17431 17.445 7.74489C18.4439 8.31548 19.3139 9.08672 20.0002 10.01C20.6894 9.09342 21.5604 8.32892 22.5587 7.76439C23.5569 7.19986 24.661 6.84747 25.8017 6.72925C26.9425 6.61103 28.0953 6.72955 29.1881 7.07737C30.281 7.42519 31.2902 7.99484 32.1528 8.75066C33.0153 9.50647 33.7126 10.4322 34.2009 11.4699C34.6892 12.5076 34.9581 13.6349 34.9907 14.7812C35.0233 15.9276 34.8189 17.0684 34.3904 18.1321C33.9619 19.1959 33.3184 20.1598 32.5002 20.9634" stroke="#46312C" stroke-width="3" stroke-linecap="round" stroke-linejoin="round"/>
</svg>
