<svg width="40" height="40" viewBox="0 0 40 40" fill="none" xmlns="http://www.w3.org/2000/svg">
<path d="M5.41494 3.74999C4.03923 3.09284 2.5278 4.34999 2.92066 5.82284L5.80066 16.5843C5.87283 16.8547 6.02288 17.098 6.23215 17.2839C6.44143 17.4699 6.70071 17.5902 6.9778 17.63L21.0978 19.6471C21.5064 19.7043 21.5064 20.2957 21.0978 20.3543L6.97923 22.37C6.70214 22.4098 6.44286 22.5301 6.23358 22.716C6.02431 22.9019 5.87426 23.1452 5.80208 23.4157L2.92066 34.1828C2.5278 35.6543 4.03923 36.9114 5.41494 36.2557L36.1264 21.6143C37.4821 20.9686 37.4821 19.0371 36.1264 18.39L5.41494 3.74999Z" fill="#CFC7BA"/>
</svg>
